<?xml version="1.0" encoding="UTF-8" standalone="no"?>
<!-- Created with Inkscape (http://www.inkscape.org/) -->

<svg
   width="9"
   height="9"
   viewBox="0 0 2.3812499 2.3812499"
   version="1.1"
   id="svg873"
   inkscape:version="1.1.1 (3bf5ae0d25, 2021-09-20, custom)"
   sodipodi:docname="glider_far.svg"
   xmlns:inkscape="http://www.inkscape.org/namespaces/inkscape"
   xmlns:sodipodi="http://sodipodi.sourceforge.net/DTD/sodipodi-0.dtd"
   xmlns="http://www.w3.org/2000/svg"
   xmlns:svg="http://www.w3.org/2000/svg">
  <sodipodi:namedview
     id="namedview875"
     pagecolor="#ffffff"
     bordercolor="#666666"
     borderopacity="1.0"
     inkscape:pageshadow="2"
     inkscape:pageopacity="0.0"
     inkscape:pagecheckerboard="true"
     inkscape:document-units="mm"
     showgrid="true"
     units="px"
     inkscape:zoom="64"
     inkscape:cx="-2.3671875"
     inkscape:cy="4.5390625"
     inkscape:window-width="2560"
     inkscape:window-height="1040"
     inkscape:window-x="0"
     inkscape:window-y="0"
     inkscape:window-maximized="1"
     inkscape:current-layer="layer2">
    <inkscape:grid
       type="xygrid"
       id="grid934" />
  </sodipodi:namedview>
  <defs
     id="defs870" />
  <g
     inkscape:groupmode="layer"
     id="layer2"
     inkscape:label="Layer 2"
     style="display:inline">
    <rect
       style="fill:#ffffff;fill-opacity:1;stroke-width:0.9522;stroke-linecap:round;stroke-linejoin:round;stroke-miterlimit:4;stroke-dasharray:none"
       id="rect1882"
       width="2.3812499"
       height="2.3812499"
       x="1.110223e-16"
       y="1.110223e-16" />
  </g>
  <g
     inkscape:label="Layer 1"
     inkscape:groupmode="layer"
     id="layer1">
    <path
       style="stroke-width:0.529;stroke-linecap:round;stroke-linejoin:round"
       d="M 0.79375,1.3229167 H 1.0583333 V 1.5875 H 0.79375 Z"
       id="path1775" />
    <path
       id="rect1460"
       style="stroke-width:0.529;stroke-linecap:round;stroke-linejoin:round"
       d="M 0.79375001,0.79375 H 1.0583333 c 0,0 0,0 0,1e-8 V 1.0583333 c 0,0 0,0 0,0 H 0.79375001 c -1e-8,0 -1e-8,0 -1e-8,0 V 0.79375001 c 0,-1e-8 0,-1e-8 1e-8,-1e-8 z M 1.0583333,1.0583333 c 0,0.088194 0,0.1763889 0,0.2645834 -0.0881944,0 -0.17638886,0 -0.26458329,0 0,0.088194 0,0.1763889 0,0.2645833 0.1763889,0 0.35277779,0 0.52916669,0 0,-0.088194 0,-0.1763889 0,-0.2645833 0.088194,0 0.1763889,0 0.2645833,0 0,-0.088194 0,-0.1763889 0,-0.2645834 -0.1763889,0 -0.3527778,0 -0.5291667,0 z" />
  </g>
</svg>
